<svg version="1.1" xmlns="http://www.w3.org/2000/svg" xmlns:xlink="http://www.w3.org/1999/xlink" role="img" width="382" height="90" viewbox="0 0 382 90"><title>YOLO11Face</title><desc>Generated by logo.svg, https://github.com/bubkoo/logo.svg</desc><path fill="#2b68a7" d="M7.34 70.35L7.91 67.66L9.38 67.66Q11.50 67.66 13.19 66.96Q14.89 66.26 15.53 63.38L18.02 51.60L10.60 30.74Q9.96 28.88 9.29 28.11Q8.62 27.34 6.76 27.34L5.93 27.34L6.50 24.66L23.78 24.66L23.21 27.34L20.01 27.34Q17.38 27.34 17.38 29.07Q17.38 29.90 17.61 30.80Q17.83 31.70 18.22 32.78L21.10 41.36Q21.74 43.34 22.25 45.39Q22.76 47.44 22.82 49.04Q23.59 47.70 24.74 46.16Q25.90 44.62 27.62 42.32L33.70 34.19Q34.92 32.59 35.50 31.31Q36.07 30.03 36.07 29.01Q36.07 28.11 35.40 27.73Q34.73 27.34 33 27.34L30.63 27.34L31.21 24.66L47.02 24.66L46.44 27.34L45.22 27.34Q43.75 27.34 42.47 28.56Q41.19 29.78 39.40 32.21L24.49 51.73L21.99 63.31Q21.74 64.34 21.74 65.10Q21.74 66.77 23.02 67.22Q24.30 67.66 26.34 67.66L27.82 67.66L27.24 70.35L7.34 70.35ZM59.18 71.06Q54.44 71.06 50.63 69.04Q46.82 67.02 44.62 63.06Q42.41 59.09 42.41 53.33Q42.41 49.62 43.43 45.58Q44.46 41.55 46.54 37.71Q48.62 33.87 51.69 30.77Q54.76 27.66 58.82 25.81Q62.89 23.95 68.01 23.95Q72.42 23.95 76.20 25.81Q79.98 27.66 82.28 31.54Q84.58 35.41 84.58 41.55Q84.58 45.07 83.59 49.10Q82.60 53.14 80.58 57.01Q78.57 60.88 75.53 64.08Q72.49 67.28 68.39 69.17Q64.30 71.06 59.18 71.06M59.56 67.54Q63.27 67.54 66.18 65.68Q69.10 63.82 71.24 60.78Q73.38 57.74 74.79 54.06Q76.20 50.38 76.87 46.67Q77.54 42.96 77.54 39.82Q77.54 33.36 74.70 30.38Q71.85 27.41 67.50 27.41Q63.78 27.41 60.84 29.26Q57.90 31.12 55.75 34.16Q53.61 37.20 52.20 40.88Q50.79 44.56 50.09 48.27Q49.38 51.98 49.38 55.12Q49.38 59.47 50.73 62.22Q52.07 64.98 54.41 66.26Q56.74 67.54 59.56 67.54ZM85.29 70.35L85.86 67.66L86.70 67.66Q88.81 67.66 90.50 66.86Q92.20 66.06 92.84 63.06L99.50 31.70Q99.75 30.67 99.75 29.90Q99.75 28.24 98.47 27.79Q97.19 27.34 95.14 27.34L94.31 27.34L94.89 24.66L113.51 24.66L112.94 27.34L112.10 27.34Q109.99 27.34 108.30 28.08Q106.60 28.82 105.96 31.70L98.41 67.15L111.02 67.15Q113.96 67.15 115.56 65.30Q117.16 63.44 117.86 61.39L119.53 56.59L122.86 56.59L119.53 70.35L85.29 70.35ZM146.54 71.06Q141.80 71.06 137.99 69.04Q134.18 67.02 131.98 63.06Q129.77 59.09 129.77 53.33Q129.77 49.62 130.79 45.58Q131.82 41.55 133.90 37.71Q135.98 33.87 139.05 30.77Q142.12 27.66 146.18 25.81Q150.25 23.95 155.37 23.95Q159.78 23.95 163.56 25.81Q167.34 27.66 169.64 31.54Q171.94 35.41 171.94 41.55Q171.94 45.07 170.95 49.10Q169.96 53.14 167.94 57.01Q165.93 60.88 162.89 64.08Q159.85 67.28 155.75 69.17Q151.66 71.06 146.54 71.06M146.92 67.54Q150.63 67.54 153.54 65.68Q156.46 63.82 158.60 60.78Q160.74 57.74 162.15 54.06Q163.56 50.38 164.23 46.67Q164.90 42.96 164.90 39.82Q164.90 33.36 162.06 30.38Q159.21 27.41 154.86 27.41Q151.14 27.41 148.20 29.26Q145.26 31.12 143.11 34.16Q140.97 37.20 139.56 40.88Q138.15 44.56 137.45 48.27Q136.74 51.98 136.74 55.12Q136.74 59.47 138.09 62.22Q139.43 64.98 141.77 66.26Q144.10 67.54 146.92 67.54ZM176.36 70.35L176.87 67.66L180.26 67.66Q182.44 67.66 184.17 66.86Q185.90 66.06 186.54 63.06L191.53 39.50Q192.04 37.01 192.65 34.48Q193.26 31.95 193.90 29.46L193.64 29.46Q190.44 32.59 188.23 34.35Q186.02 36.11 183.98 36.11Q182.63 36.11 182.02 35.12Q181.42 34.13 181.42 32.66Q183.66 32.08 185.96 31.09Q188.26 30.10 191.91 27.73L197.10 24.40L201.19 24.40L192.94 63.31Q192.68 64.34 192.68 65.10Q192.68 66.77 193.99 67.22Q195.30 67.66 197.29 67.66L200.74 67.66L200.17 70.35L176.36 70.35ZM212.14 70.35L212.65 67.66L216.04 67.66Q218.22 67.66 219.94 66.86Q221.67 66.06 222.31 63.06L227.30 39.50Q227.82 37.01 228.42 34.48Q229.03 31.95 229.67 29.46L229.42 29.46Q226.22 32.59 224.01 34.35Q221.80 36.11 219.75 36.11Q218.41 36.11 217.80 35.12Q217.19 34.13 217.19 32.66Q219.43 32.08 221.74 31.09Q224.04 30.10 227.69 27.73L232.87 24.40L236.97 24.40L228.71 63.31Q228.46 64.34 228.46 65.10Q228.46 66.77 229.77 67.22Q231.08 67.66 233.06 67.66L236.52 67.66L235.94 70.35L212.14 70.35ZM244.14 70.35L244.65 67.66L245.48 67.66Q247.59 67.66 249.29 66.93Q250.98 66.19 251.69 63.38L258.41 31.70Q258.66 30.67 258.66 29.90Q258.66 28.24 257.38 27.79Q256.10 27.34 254.06 27.34L253.22 27.34L253.80 24.66L286.06 24.66L284.01 35.86L280.68 35.86Q280.81 34.77 280.90 33.58Q281 32.40 281 32.14Q281 30.29 279.94 29.07Q278.89 27.86 276.20 27.86L265.70 27.86L261.74 46.35L277.16 46.35L276.52 49.49L261.10 49.49L258.22 63.06Q258.02 63.95 258.02 64.66Q258.02 66.64 259.30 67.15Q260.58 67.66 262.44 67.66L264.55 67.66L264.04 70.35L244.14 70.35ZM291.69 70.99Q288.87 70.99 287.02 69.46Q285.16 67.92 284.30 65.26Q283.43 62.61 283.43 59.28Q283.43 56.27 284.23 52.98Q285.03 49.68 286.63 46.58Q288.23 43.47 290.54 40.94Q292.84 38.42 295.85 36.91Q298.86 35.41 302.50 35.41Q304.81 35.41 306.76 36.05Q308.71 36.69 309.99 37.71L312.81 36.11L314.86 36.11L310.50 56.59Q310.38 57.30 310.12 58.64Q309.86 59.98 309.70 61.39Q309.54 62.80 309.54 63.70Q309.54 66.96 311.66 66.96Q312.68 66.96 313.86 66.48Q315.05 66 316.26 65.30L317.42 67.15Q316.52 67.98 314.98 68.88Q313.45 69.78 311.72 70.38Q309.99 70.99 308.39 70.99Q306.09 70.99 304.74 69.58Q303.40 68.18 303.40 65.68Q303.40 64.40 303.56 63.34Q303.72 62.29 304.04 60.69L303.66 60.69Q301.42 65.62 298.44 68.30Q295.46 70.99 291.69 70.99M293.99 66.96Q295.66 66.96 297.42 65.68Q299.18 64.40 300.74 62.22Q302.31 60.05 303.53 57.36Q304.74 54.67 305.32 51.92L307.69 40.59Q306.98 39.44 305.64 38.86Q304.30 38.29 302.82 38.29Q300.26 38.29 298.22 39.73Q296.17 41.17 294.63 43.54Q293.10 45.90 292.04 48.72Q290.98 51.54 290.47 54.38Q289.96 57.23 289.96 59.54Q289.96 63.50 291.11 65.23Q292.26 66.96 293.99 66.96ZM332.97 70.99Q329.51 70.99 326.70 69.52Q323.88 68.05 322.18 65.14Q320.49 62.22 320.49 57.74Q320.49 54.22 321.70 50.32Q322.92 46.42 325.35 43.02Q327.78 39.63 331.34 37.52Q334.89 35.41 339.56 35.41Q344.36 35.41 346.63 37.30Q348.90 39.18 348.90 41.55Q348.90 43.34 347.43 44.69Q345.96 46.03 343.21 46.03Q343.21 42.96 342.02 40.72Q340.84 38.48 338.28 38.48Q336.23 38.48 334.50 39.86Q332.78 41.23 331.40 43.44Q330.02 45.65 329.10 48.30Q328.17 50.96 327.66 53.58Q327.14 56.21 327.14 58.26Q327.14 62.42 328.94 64.69Q330.73 66.96 334.18 66.96Q337.58 66.96 339.82 65.49Q342.06 64.02 343.40 62.35Q344.04 62.80 344.04 63.95Q344.04 65.36 342.86 66.99Q341.67 68.62 339.24 69.81Q336.81 70.99 332.97 70.99ZM364.14 70.99Q360.68 70.99 357.86 69.52Q355.05 68.05 353.35 65.14Q351.66 62.22 351.66 57.74Q351.66 54.22 352.87 50.32Q354.09 46.42 356.52 43.02Q358.95 39.63 362.50 37.52Q366.06 35.41 370.73 35.41Q374.76 35.41 377 37.36Q379.24 39.31 379.24 42.77Q379.24 46.16 376.84 49.07Q374.44 51.98 370.25 53.78Q366.06 55.57 360.68 55.57L358.44 55.57Q358.38 56.27 358.34 56.94Q358.31 57.62 358.31 58.26Q358.31 62.42 360.10 64.69Q361.90 66.96 365.35 66.96Q368.42 66.96 370.82 65.49Q373.22 64.02 374.57 62.35Q375.21 62.80 375.21 63.95Q375.21 65.36 374.02 66.99Q372.84 68.62 370.41 69.81Q367.98 70.99 364.14 70.99M359.02 52.62L359.66 52.62Q363.37 52.62 366.31 51.38Q369.26 50.13 370.95 47.92Q372.65 45.71 372.65 42.77Q372.65 38.48 368.94 38.48Q367.08 38.48 365.51 39.73Q363.94 40.98 362.66 43.06Q361.38 45.14 360.46 47.63Q359.53 50.13 359.02 52.62Z"></path></svg>